# xmcd
#
# Track frame offsets: 
#        150
#        17652
#        30828
#        45366
#        57921
#        76728
#        93060
#        103083
#        116871
#        129672
#        148158
#
# Disc length: 2247 seconds
#
# Revision: 0
# Processed by: cddbd v1.5.2PL0 Copyright (c) Steve Scherf et al.
# Submitted via: ExactAudioCopy v1.1
#
DISCID=8308c50b
DTITLE=Venetic - Scorched Earth Days
DYEAR=2012
DGENRE=
TTITLE0=Floating Away
TTITLE1=Farewell Al
TTITLE2=The Heckler
TTITLE3=Pizza Joint
TTITLE4=In The Slipstream
TTITLE5=Prune Juice
TTITLE6=County Fair Day
TTITLE7=Cat's Farewell
TTITLE8=Song For You
TTITLE9=Going To The Sky
TTITLE10=Finale
EXTD=
EXTT0=
EXTT1=
EXTT2=
EXTT3=
EXTT4=
EXTT5=
EXTT6=
EXTT7=
EXTT8=
EXTT9=
EXTT10=
PLAYORDER=
